<svg width="128" height="128" viewBox="0 0 128 128" fill="none" xmlns="http://www.w3.org/2000/svg">
<g clip-path="url(#clip0_1_2)">
<rect width="128" height="128" fill="url(#paint0_linear_1_2)"/>
<path d="M47.1826 107.845L46.8368 108.594C46.6892 108.914 46.5358 109.202 46.3765 109.46C46.2141 109.724 46.0064 109.955 45.7533 110.154C45.4972 110.358 45.1645 110.528 44.7553 110.662C44.9217 111.054 45.0115 111.41 45.0248 111.732C45.0283 112.056 44.9855 112.368 44.8964 112.666C44.7975 112.967 44.6758 113.275 44.5313 113.588L44.1901 114.327L43.0815 113.815L43.1922 113.575L43.3175 113.33L43.4051 113.14L43.5027 112.955C43.6441 112.649 43.7412 112.342 43.794 112.036C43.8437 111.735 43.7823 111.396 43.6097 111.018C43.1902 111.139 42.8842 111.321 42.6916 111.563C42.4892 111.809 42.3173 112.085 42.1759 112.391L42.0976 112.561L42.0199 112.755L41.9093 112.995L41.8132 113.229L40.6947 112.713L41.0359 111.974C41.1773 111.668 41.334 111.38 41.5062 111.113C41.6686 110.848 41.8778 110.614 42.134 110.409C42.387 110.211 42.7181 110.045 43.1274 109.91C42.9574 109.509 42.8706 109.146 42.8671 108.821C42.8538 108.5 42.8951 108.192 42.9909 107.897C43.077 107.605 43.1938 107.3 43.3414 106.98L43.6872 106.231L44.8057 106.748L44.6805 106.993L44.5698 107.232L44.4722 107.418L44.3938 107.587C44.2493 107.9 44.1538 108.204 44.1071 108.497C44.0574 108.797 44.1175 109.148 44.2875 109.55C44.6906 109.429 44.9888 109.255 45.1819 109.03C45.3719 108.81 45.5407 108.541 45.6883 108.221L45.7659 108.027L45.8535 107.837L45.9542 107.593L46.0741 107.333L47.1826 107.845ZM43.3657 106.069L39.9626 112.32L38.8709 111.725L42.274 105.475L43.3657 106.069ZM41.2654 104.841L41.5946 105.061L41.939 105.278L38.1348 111.319L37.8497 111.153L37.1329 110.701C36.7544 110.463 36.4261 110.2 36.148 109.912C35.8598 109.627 35.6775 109.304 35.601 108.944C35.5205 108.59 35.6016 108.186 35.8441 107.732C35.9262 107.601 36.0293 107.458 36.1534 107.303C36.2736 107.153 36.4124 107.015 36.5699 106.889C36.7234 106.769 36.8912 106.688 37.0733 106.647C36.9942 106.346 37.0142 106.059 37.1333 105.788C37.2485 105.522 37.3764 105.278 37.5171 105.055C37.7789 104.639 38.0314 104.334 38.2746 104.141C38.5178 103.947 38.7685 103.845 39.0266 103.834C39.2746 103.826 39.5437 103.887 39.834 104.018C40.1243 104.148 40.4494 104.327 40.8093 104.554L41.2654 104.841ZM38.4032 108.147L38.245 108.048C38.1892 108.013 38.1209 107.97 38.0402 107.919C37.9556 107.874 37.8396 107.831 37.692 107.791C37.5546 107.747 37.42 107.775 37.2883 107.874C37.1504 107.969 37.0345 108.091 36.9408 108.24C36.8587 108.371 36.8031 108.5 36.7739 108.629C36.7447 108.758 36.7564 108.857 36.809 108.924L36.8124 108.94C36.8687 109.07 36.9818 109.194 37.1517 109.309C37.3215 109.425 37.4809 109.53 37.6298 109.623L37.7136 109.676L38.5928 108.28L38.4905 108.215L38.4032 108.147ZM40.039 105.447C39.8777 105.345 39.7209 105.264 39.5688 105.203C39.4104 105.138 39.2706 105.119 39.1492 105.146C39.0442 105.176 38.9433 105.246 38.8465 105.359C38.7435 105.467 38.6471 105.593 38.5572 105.736C38.4947 105.835 38.4384 105.938 38.3882 106.045C38.3319 106.148 38.2826 106.247 38.2403 106.342C38.1863 106.455 38.2302 106.578 38.372 106.711C38.5138 106.843 38.6654 106.961 38.8267 107.062L38.9663 107.15L39.1025 107.223L39.2142 107.293L40.2565 105.597L40.1635 105.538L40.039 105.447ZM36.903 101.893C37.2589 102.164 37.513 102.417 37.6653 102.653C37.8073 102.89 37.8724 103.12 37.8605 103.341C37.8442 103.568 37.7662 103.804 37.6266 104.048C37.4811 104.287 37.3017 104.547 37.0885 104.827L36.117 104.087L36.2437 103.921L36.3723 103.77L36.479 103.63C36.59 103.484 36.6393 103.365 36.6268 103.273C36.6142 103.18 36.4942 103.047 36.2666 102.874L36.1179 102.761C35.9631 102.661 35.8492 102.593 35.7761 102.556C35.6928 102.52 35.6224 102.522 35.5649 102.561C35.503 102.606 35.4231 102.693 35.3254 102.821L35.2521 102.917L35.1567 103.024L35.0634 103.147L34.8814 103.368C34.8503 103.409 34.8066 103.472 34.7502 103.558C34.688 103.64 34.6242 103.748 34.5587 103.883C34.542 103.953 34.5847 104.036 34.6867 104.132C34.7784 104.23 34.868 104.312 34.9555 104.378L34.9905 104.405C35.3464 104.676 35.6005 104.929 35.7528 105.165C35.8993 105.396 35.9666 105.623 35.9547 105.844C35.9429 106.066 35.8715 106.292 35.7408 106.525C35.5998 106.758 35.4226 107.015 35.2094 107.295C34.814 107.814 34.4204 108.095 34.0285 108.138C33.6321 108.186 33.1509 107.995 32.585 107.564C32.0132 107.129 31.7053 106.71 31.6613 106.308C31.607 105.907 31.7797 105.444 32.1795 104.919L33.1597 105.665C33.0176 105.852 32.9264 105.99 32.8861 106.079C32.8414 106.174 32.8555 106.259 32.9283 106.333C32.9908 106.408 33.1096 106.512 33.2847 106.645C33.4597 106.779 33.5947 106.868 33.6897 106.912C33.7789 106.953 33.864 106.944 33.9451 106.886C34.0159 106.829 34.1135 106.719 34.2379 106.556L34.3445 106.415L34.5066 106.221C34.5288 106.192 34.5665 106.142 34.6198 106.072C34.6629 106.003 34.7009 105.917 34.7339 105.813C34.7414 105.791 34.7103 105.735 34.6405 105.645C34.5605 105.557 34.4417 105.453 34.2842 105.333C33.8991 105.039 33.6371 104.766 33.4981 104.513C33.3547 104.265 33.3014 104.027 33.3383 103.797C33.3649 103.568 33.4538 103.336 33.6051 103.101C33.752 102.872 33.9254 102.626 34.1253 102.364L34.2719 102.171C34.6717 101.646 35.0698 101.359 35.4661 101.311C35.8522 101.264 36.3312 101.458 36.903 101.893ZM34.2704 99.745L32.2897 101.928C32.3569 102.455 32.3425 102.907 32.2468 103.286C32.151 103.664 31.9964 104.009 31.7832 104.321C31.5596 104.633 31.2975 104.954 30.9969 105.285L30.4352 105.905L29.5309 105.084L29.7304 104.864L29.9381 104.652L30.0933 104.481L30.2567 104.317C30.4981 104.051 30.7045 103.758 30.8758 103.438C31.0471 103.118 31.1326 102.74 31.1321 102.304C30.6768 102.337 30.2983 102.454 29.9967 102.655C29.6901 102.862 29.4037 103.113 29.1377 103.406L28.9898 103.569L28.8502 103.739L28.6654 103.943L28.4962 104.146L27.5837 103.318L28.1454 102.699C28.4459 102.367 28.746 102.08 29.0457 101.837C29.335 101.595 29.6661 101.41 30.0388 101.283C30.4013 101.156 30.8474 101.095 31.3772 101.101L33.3579 98.9172L34.2704 99.745ZM29.8327 95.2286L30.0748 95.5422L30.3323 95.8574L24.8044 100.375L24.5871 100.126L24.0511 99.4704C23.7681 99.1241 23.5405 98.7702 23.3683 98.409C23.1859 98.0466 23.1157 97.6826 23.1577 97.3168C23.194 96.9556 23.3993 96.5984 23.7736 96.2452C23.8928 96.1477 24.0361 96.0449 24.2033 95.9366C24.3649 95.833 24.5403 95.7464 24.7297 95.6769C24.9135 95.612 25.0982 95.5889 25.2839 95.6076C25.3048 95.297 25.4148 95.0318 25.6141 94.8121C25.8077 94.5971 26.0067 94.406 26.2112 94.239C26.5916 93.928 26.9279 93.7195 27.22 93.6134C27.5121 93.5073 27.7822 93.4902 28.0303 93.562C28.2682 93.6328 28.5039 93.7764 28.7375 93.9927C28.9711 94.2091 29.2225 94.4819 29.4916 94.8113L29.8327 95.2286ZM26.0677 97.4531L25.9493 97.3083C25.9076 97.2572 25.8565 97.1948 25.7962 97.1209C25.7302 97.0518 25.6338 96.9743 25.5069 96.8886C25.3903 96.8039 25.2538 96.7876 25.0975 96.8396C24.9365 96.8859 24.7878 96.9648 24.6515 97.0762C24.5323 97.1736 24.4383 97.2788 24.3696 97.3918C24.301 97.5047 24.2808 97.6017 24.3091 97.6827L24.3075 97.6982C24.3193 97.8401 24.3874 97.9929 24.5116 98.1565C24.6359 98.3202 24.7537 98.4701 24.865 98.6064L24.9277 98.6831L26.2053 97.6389L26.1288 97.5453L26.0677 97.4531ZM28.4774 95.4128C28.3567 95.2652 28.234 95.1382 28.1092 95.0318C27.9798 94.9198 27.8531 94.8575 27.7293 94.8451C27.6204 94.8393 27.5023 94.8743 27.3748 94.9501C27.2426 95.0202 27.1113 95.1086 26.9807 95.2154C26.8898 95.2896 26.8036 95.3695 26.722 95.4551C26.6358 95.5351 26.5576 95.6132 26.4874 95.6895C26.4001 95.7798 26.4026 95.9103 26.4949 96.0811C26.5872 96.252 26.6936 96.4112 26.8143 96.5589L26.9187 96.6866L27.0247 96.7989L27.1082 96.9011L28.6359 95.6242L28.5663 95.539L28.4774 95.4128ZM27.6293 92.5309L21.8611 96.6998L21.133 95.6923L26.9012 91.5235L27.6293 92.5309ZM25.6995 89.6196C26.0758 90.2233 26.2214 90.7202 26.1362 91.1103C26.0409 91.4981 25.7195 91.8627 25.1718 92.2041L22.1941 94.0605C21.6402 94.4057 21.1714 94.5339 20.7875 94.4448C20.3997 94.3495 20.0176 94.0001 19.6413 93.3964C19.2689 92.799 19.1252 92.3053 19.2104 91.9151C19.2855 91.5227 19.603 91.1519 20.1631 90.8027L22.8421 89.1325C23.1408 88.9463 23.415 88.797 23.6647 88.6845C23.9143 88.5721 24.1519 88.5234 24.3773 88.5384C24.5988 88.5472 24.8179 88.6353 25.0346 88.8027C25.2451 88.9739 25.4667 89.2463 25.6995 89.6196ZM24.6797 90.2295C24.509 89.9557 24.3428 89.8346 24.181 89.8663C24.0092 89.8956 23.7802 89.9995 23.4939 90.178L20.8149 91.8482C20.6344 91.9607 20.5146 92.0527 20.4555 92.1241C20.3862 92.1932 20.3706 92.2721 20.4085 92.3607C20.4403 92.4533 20.5144 92.5929 20.6308 92.7796C20.7472 92.9663 20.8481 93.0935 20.9335 93.1612C21.0088 93.2266 21.0947 93.2465 21.1911 93.221C21.2774 93.1931 21.3984 93.1306 21.554 93.0337L24.268 91.3157C24.4796 91.1838 24.6336 91.0705 24.7301 90.9758C24.8266 90.881 24.8695 90.7765 24.8588 90.6623C24.848 90.548 24.7883 90.4037 24.6797 90.2295ZM24.5807 87.8226L17.3385 89.2342L16.9715 88.5076L24.1835 87.062L24.5807 87.8226ZM22.0612 82.5924L21.2857 82.8738C20.9548 82.9938 20.6418 83.0879 20.3466 83.156C20.0446 83.2266 19.7341 83.2417 19.4152 83.2014C19.0895 83.1636 18.7349 83.0465 18.3516 82.8501C18.1904 83.2441 18.0003 83.5588 17.7815 83.7942C17.5533 84.0253 17.3019 84.214 17.0274 84.3604C16.7435 84.5024 16.4395 84.6322 16.1155 84.7498L15.3503 85.0274L14.9338 83.8796L15.182 83.7896L15.4443 83.7061L15.6407 83.6349L15.841 83.5739C16.1581 83.4588 16.4442 83.3121 16.6993 83.1337C16.9475 82.9579 17.1454 82.6754 17.2929 82.2865C16.9115 82.0738 16.5669 81.9843 16.2593 82.0179C15.9423 82.0471 15.6252 82.1193 15.3081 82.2343L15.1323 82.2981L14.9396 82.3797L14.6914 82.4698L14.4573 82.5664L14.0371 81.4083L14.8023 81.1307C15.1194 81.0156 15.4337 80.925 15.7451 80.8588C16.0471 80.7882 16.361 80.7718 16.6868 80.8096C17.0057 80.8499 17.3568 80.9683 17.7401 81.1646C17.9057 80.7613 18.1027 80.4441 18.3309 80.213C18.5497 79.9776 18.7977 79.7902 19.0747 79.6506C19.3423 79.5067 19.6416 79.3747 19.9725 79.2547L20.748 78.9733L21.1682 80.1314L20.9059 80.2148L20.6578 80.3049L20.4576 80.3658L20.2818 80.4296C19.9578 80.5472 19.6751 80.6926 19.4338 80.866C19.1856 81.0419 18.9786 81.3315 18.8129 81.7349C19.1824 81.9363 19.5154 82.0261 19.8117 82.0044C20.1012 81.9852 20.4114 81.9155 20.7423 81.7955L20.935 81.7138L21.1315 81.6425L21.3759 81.5421L21.6447 81.4446L22.0612 82.5924ZM20.6271 78.6054L13.8067 80.6385L13.4516 79.4473L20.272 77.4142L20.6271 78.6054ZM20.0119 76.2682L20.0883 76.6569L20.1779 77.0539L13.2138 78.6249L13.1305 78.3054L12.9441 77.4791C12.8457 77.0428 12.8002 76.6245 12.8077 76.2244C12.8064 75.8187 12.9062 75.4617 13.1073 75.1532C13.3012 74.8464 13.6445 74.6186 14.1371 74.4698C14.2874 74.4359 14.4615 74.4079 14.6595 74.3858C14.8503 74.3653 15.046 74.3663 15.2465 74.3887C15.4399 74.4128 15.6154 74.4746 15.7733 74.5744C15.9307 74.3058 16.1476 74.1178 16.4241 74.0103C16.6934 73.9045 16.9568 73.8225 17.2143 73.7644C17.6936 73.6563 18.0876 73.62 18.3964 73.6556C18.7051 73.6912 18.9544 73.7966 19.1443 73.9718C19.3254 74.1414 19.4721 74.3752 19.5844 74.6731C19.6967 74.971 19.7997 75.3275 19.8933 75.7424L20.0119 76.2682ZM15.6496 76.5756L15.6085 76.3932C15.5939 76.3288 15.5762 76.2501 15.5552 76.1571C15.5271 76.0658 15.4754 75.9534 15.4002 75.82C15.3338 75.6921 15.219 75.6165 15.0559 75.5932C14.8911 75.5627 14.7229 75.5668 14.5512 75.6056C14.401 75.6394 14.2699 75.6916 14.158 75.7619C14.0461 75.8323 13.9847 75.91 13.9738 75.9952L13.9655 76.0083C13.9126 76.1405 13.9052 76.3076 13.9432 76.5095C13.9813 76.7114 14.0196 76.8982 14.0584 77.0699L14.0802 77.1665L15.6897 76.8034L15.6631 76.6854L15.6496 76.5756ZM18.7171 75.8273C18.6752 75.6413 18.6221 75.4728 18.558 75.3219C18.4923 75.1638 18.4068 75.0515 18.3016 74.9851C18.2068 74.9313 18.0854 74.9098 17.9375 74.9206C17.788 74.9243 17.6309 74.9446 17.4664 74.9818C17.352 75.0076 17.2391 75.0406 17.1279 75.0807C17.015 75.1137 16.9102 75.1486 16.8132 75.1855C16.6948 75.2272 16.6387 75.3451 16.6449 75.5392C16.6511 75.7333 16.6752 75.9233 16.7172 76.1093L16.7535 76.2702L16.7981 76.418L16.8271 76.5468L18.7645 76.0872L18.7403 75.9799L18.7171 75.8273ZM19.0252 71.1036C19.0836 71.5471 19.0828 71.906 19.0227 72.1802C18.9545 72.4481 18.8376 72.6558 18.6721 72.8033C18.4994 72.9518 18.2772 73.0624 18.0057 73.1352C17.7333 73.2006 17.4226 73.2564 17.0736 73.3023L16.9141 72.0918L17.1214 72.0645L17.3191 72.0495L17.4936 72.0265C17.6754 72.0026 17.7946 71.9536 17.8515 71.8796C17.9083 71.8055 17.918 71.6267 17.8807 71.3432L17.8562 71.1578C17.8178 70.9779 17.786 70.8489 17.7609 70.7709C17.7276 70.6865 17.6768 70.6377 17.6085 70.6245C17.5329 70.6123 17.4151 70.6167 17.2552 70.6378L17.1352 70.6536L16.992 70.6614L16.8393 70.6815L16.5544 70.7079C16.5035 70.7146 16.4276 70.7283 16.3268 70.749C16.225 70.7624 16.1033 70.7932 15.9617 70.8414C15.9001 70.8791 15.8711 70.968 15.8748 71.1081C15.8702 71.2418 15.8751 71.3632 15.8895 71.4723L15.8952 71.5159C15.9536 71.9594 15.9528 72.3182 15.8928 72.5924C15.8318 72.8594 15.7185 73.0666 15.5531 73.2141C15.3876 73.3617 15.1764 73.4708 14.9194 73.5417C14.6542 73.6062 14.3471 73.6614 13.9982 73.7074C13.3511 73.7926 12.8744 73.7112 12.568 73.4631C12.2544 73.2159 12.0511 72.7397 11.9582 72.0345C11.8644 71.3219 11.9447 70.8084 12.1991 70.4938C12.4453 70.1729 12.8956 69.9694 13.5499 69.8832L13.7108 71.1046C13.4782 71.1353 13.316 71.1677 13.2244 71.202C13.1254 71.2372 13.0754 71.3067 13.0743 71.4104C13.0649 71.5078 13.0746 71.6655 13.1033 71.8836C13.1321 72.1017 13.164 72.2603 13.1993 72.3592C13.2335 72.4508 13.2998 72.505 13.3982 72.5216C13.4883 72.5319 13.6351 72.5237 13.8387 72.4969L14.0132 72.4739L14.2655 72.4517C14.3018 72.4469 14.3636 72.4388 14.4509 72.4273C14.5299 72.4095 14.6179 72.3757 14.7149 72.326C14.7358 72.3158 14.7535 72.2543 14.7683 72.1414C14.7747 72.0222 14.7651 71.8645 14.7392 71.6682C14.676 71.1883 14.6853 70.8099 14.7672 70.5328C14.8418 70.2567 14.9737 70.0507 15.1629 69.9148C15.3439 69.7726 15.571 69.6724 15.8445 69.6142C16.1106 69.557 16.4072 69.5068 16.7344 69.4637L16.9744 69.4321C17.6287 69.346 18.1127 69.4264 18.4263 69.6736C18.7317 69.9144 18.9313 70.3911 19.0252 71.1036ZM18.6961 67.7236L15.751 67.8541C15.4245 68.2723 15.0932 68.5806 14.757 68.779C14.4208 68.9774 14.067 69.1105 13.6956 69.1783C13.3166 69.2392 12.9036 69.2795 12.4568 69.2993L11.6216 69.3363L11.5675 68.1165L11.8642 68.1033L12.1614 68.1012L12.3922 68.0909L12.6235 68.0917C12.9825 68.0758 13.3358 68.0161 13.6836 67.9126C14.0313 67.8091 14.3599 67.6037 14.6693 67.2964C14.3256 66.996 13.9761 66.8096 13.6205 66.7373C13.2576 66.6652 12.8784 66.638 12.4828 66.6555L12.263 66.6653L12.0437 66.686L11.769 66.6982L11.5057 66.7208L11.4512 65.49L12.2864 65.453C12.7333 65.4332 13.1485 65.4442 13.532 65.4859C13.9079 65.5207 14.2723 65.6257 14.625 65.8009C14.9702 65.9691 15.3273 66.2432 15.6965 66.6233L18.6416 66.4928L18.6961 67.7236ZM18.7629 61.3896L18.7109 61.7823L18.6687 62.1871L11.5682 61.4464L11.5915 61.117L11.6794 60.2746C11.7258 59.8297 11.8166 59.4189 11.9517 59.0422C12.0804 58.6575 12.2893 58.3512 12.5785 58.1233C12.8604 57.8946 13.2585 57.7887 13.7729 57.8055C13.9261 57.8215 14.1 57.8507 14.2946 57.8931C14.482 57.9348 14.667 57.9983 14.8498 58.0837C15.0253 58.1684 15.1719 58.2832 15.2895 58.4282C15.5246 58.2242 15.7903 58.1155 16.0866 58.1022C16.3756 58.0881 16.6514 58.0947 16.914 58.1221C17.4027 58.1731 17.7876 58.2649 18.0687 58.3974C18.3498 58.53 18.5522 58.7096 18.676 58.9363C18.7933 59.155 18.8575 59.4235 18.8685 59.7417C18.8795 60.0599 18.863 60.4305 18.8189 60.8535L18.7629 61.3896ZM14.5318 60.2846L14.5512 60.0986C14.558 60.033 14.5664 59.9528 14.5763 59.8579C14.5789 59.7624 14.5659 59.6393 14.5374 59.4889C14.5153 59.3465 14.4308 59.2382 14.2837 59.1638C14.1374 59.0822 13.9767 59.0323 13.8017 59.014C13.6485 58.998 13.5076 59.0054 13.3791 59.0363C13.2505 59.0671 13.1675 59.1211 13.1299 59.1983L13.1178 59.2081C13.0254 59.3164 12.9649 59.4723 12.9363 59.6758C12.9077 59.8793 12.8843 60.0685 12.866 60.2436L12.8558 60.342L14.4969 60.5132L14.5094 60.3929L14.5318 60.2846ZM17.6774 60.5575C17.6972 60.3678 17.7009 60.1913 17.6884 60.0278C17.6768 59.857 17.6317 59.7232 17.5533 59.6266C17.4807 59.5453 17.3726 59.4861 17.229 59.449C17.0862 59.4046 16.9309 59.3736 16.7631 59.3561C16.6464 59.344 16.529 59.3391 16.4108 59.3415C16.2933 59.3366 16.1828 59.3361 16.0791 59.3401C15.9536 59.3417 15.8627 59.4355 15.8065 59.6213C15.7502 59.8071 15.7122 59.9949 15.6924 60.1845L15.6753 60.3486L15.6703 60.5029L15.6566 60.6342L17.6391 60.8189L17.6505 60.7095L17.6774 60.5575ZM19.1245 57.9358L12.1055 56.7585L12.3112 55.5326L19.3301 56.7099L19.1245 57.9358ZM19.8326 54.4922C19.6717 55.1851 19.4232 55.6393 19.0871 55.8549C18.7454 56.0616 18.2603 56.0921 17.6317 55.9461L14.2136 55.1525C13.5779 55.0049 13.1558 54.7639 12.9474 54.4294C12.7406 54.0878 12.7176 53.5706 12.8785 52.8777C13.0377 52.1919 13.2854 51.7412 13.6215 51.5257C13.9522 51.3013 14.4389 51.2637 15.0818 51.413L18.157 52.127C18.4999 52.2066 18.7994 52.2949 19.0554 52.392C19.3114 52.4891 19.5138 52.6226 19.6625 52.7927C19.8129 52.9556 19.9055 53.1728 19.9403 53.4444C19.968 53.7143 19.9321 54.0636 19.8326 54.4922ZM18.6803 54.2021C18.7533 53.8878 18.7214 53.6846 18.5847 53.5926C18.4424 53.4919 18.207 53.4033 17.8784 53.327L14.8032 52.6131C14.5961 52.565 14.4463 52.5453 14.3539 52.5539C14.2561 52.5538 14.1893 52.5985 14.1534 52.6881C14.1104 52.776 14.0641 52.9271 14.0143 53.1414C13.9645 53.3557 13.9459 53.517 13.9584 53.6253C13.9654 53.7247 14.0121 53.7996 14.0983 53.8497C14.179 53.891 14.3087 53.9324 14.4873 53.9739L17.621 54.6789C17.8639 54.7352 18.053 54.7641 18.1882 54.7654C18.3234 54.7666 18.4276 54.7231 18.5008 54.6347C18.574 54.5463 18.6339 54.4021 18.6803 54.2021ZM20.3079 52.4479L14.2099 48.2938L14.4682 47.5218L20.569 51.6306L20.3079 52.4479ZM22.2485 46.9614L21.5016 46.6111C21.1829 46.4616 20.8952 46.3065 20.6386 46.1456C20.3753 45.9816 20.1454 45.7725 19.9487 45.5183C19.7454 45.2609 19.5779 44.9272 19.4462 44.5172C19.0534 44.6812 18.6964 44.7689 18.3752 44.7803C18.0504 44.7819 17.7393 44.7372 17.4418 44.6462C17.1407 44.5455 16.8341 44.422 16.5221 44.2756L15.7851 43.93L16.3036 42.8245L16.5426 42.9366L16.7869 43.0634L16.9761 43.1521L17.1607 43.2508C17.4661 43.3941 17.772 43.493 18.0785 43.5477C18.3783 43.5992 18.718 43.5398 19.0976 43.3695C18.9788 42.9493 18.7988 42.6422 18.5578 42.4481C18.3132 42.2443 18.0381 42.0708 17.7327 41.9275L17.5634 41.8481L17.3695 41.7693L17.1305 41.6572L16.8968 41.5597L17.4199 40.4443L18.1569 40.79C18.4623 40.9332 18.7484 41.0917 19.0152 41.2654C19.2785 41.4294 19.5118 41.6401 19.7151 41.8974C19.9118 42.1517 20.0759 42.4838 20.2076 42.8939C20.6102 42.7263 20.9739 42.6417 21.2986 42.6401C21.6198 42.6288 21.9276 42.6719 22.222 42.7695C22.5129 42.8573 22.8177 42.976 23.1364 43.1254L23.8834 43.4758L23.3602 44.5912L23.1159 44.4644L22.8769 44.3523L22.6923 44.2536L22.523 44.1742C22.211 44.0279 21.9084 43.9305 21.6152 43.8821C21.3154 43.8306 20.9641 43.8886 20.5616 44.0561C20.68 44.46 20.8515 44.7591 21.0762 44.9536C21.2942 45.145 21.5626 45.3154 21.8813 45.4648L22.0752 45.5436L22.2644 45.6324L22.5081 45.7345L22.767 45.856L22.2485 46.9614ZM24.0561 43.1358L17.8055 39.7327L18.3998 38.641L24.6505 42.0441L24.0561 43.1358ZM25.2784 41.0566L25.0561 41.3846L24.8372 41.7277L18.8186 37.8882L18.9868 37.6041L19.4423 36.89C19.6829 36.5129 19.9479 36.1862 20.2373 35.9098C20.5245 35.6232 20.8484 35.4428 21.209 35.3684C21.5634 35.29 21.9669 35.3734 22.4194 35.6186C22.5492 35.7014 22.6916 35.8053 22.8467 35.9304C22.9957 36.0515 23.1327 36.1911 23.258 36.3493C23.3771 36.5035 23.4567 36.6718 23.497 36.8541C23.7986 36.7768 24.0848 36.7985 24.3558 36.9191C24.6206 37.0359 24.8643 37.1652 25.0868 37.3072C25.501 37.5714 25.8042 37.8257 25.9963 38.07C26.1884 38.3143 26.289 38.5656 26.2983 38.8238C26.3054 39.0718 26.2426 39.3406 26.1101 39.6301C25.9776 39.9196 25.797 40.2436 25.5683 40.6022L25.2784 41.0566ZM21.9888 38.1752L22.0893 38.0176C22.1248 37.9619 22.1682 37.8939 22.2195 37.8136C22.2646 37.7293 22.308 37.6134 22.3498 37.4661C22.3938 37.3289 22.3667 37.1942 22.2684 37.0619C22.1741 36.9235 22.0527 36.8069 21.9043 36.7122C21.7745 36.6294 21.6452 36.573 21.5165 36.5431C21.3877 36.5131 21.2892 36.5243 21.2211 36.5765L21.2059 36.5799C21.0748 36.6354 20.951 36.7477 20.8344 36.9169C20.7177 37.0861 20.6121 37.2448 20.5175 37.3932L20.4642 37.4767L21.8553 38.3641L21.9203 38.2621L21.9888 38.1752ZM24.6799 39.8268C24.7824 39.666 24.8647 39.5097 24.9268 39.358C24.9928 39.2 25.0123 39.0602 24.9855 38.9387C24.9569 38.8335 24.8867 38.7322 24.7749 38.6348C24.667 38.5312 24.542 38.434 24.3998 38.3433C24.3009 38.2802 24.198 38.2233 24.0912 38.1725C23.9883 38.1156 23.8897 38.0657 23.7952 38.0229C23.6822 37.9682 23.559 38.0114 23.4256 38.1524C23.2921 38.2934 23.1741 38.4443 23.0716 38.605L22.9828 38.7441L22.9093 38.8799L22.8383 38.9912L24.5287 40.0434L24.5878 39.9507L24.6799 39.8268ZM28.252 36.7113C27.9789 37.0656 27.7241 37.3182 27.4874 37.4691C27.2494 37.6098 27.0197 37.6735 26.7984 37.6603C26.5713 37.6427 26.3362 37.5633 26.0931 37.4222C25.8545 37.2754 25.5957 37.0945 25.3169 36.8796L26.0623 35.9125L26.2278 36.0401L26.378 36.1697L26.5174 36.2771C26.6626 36.389 26.7815 36.439 26.874 36.427C26.9666 36.415 27.1002 36.2958 27.2747 36.0692L27.3889 35.9211C27.4892 35.767 27.5582 35.6535 27.5958 35.5806C27.6321 35.4975 27.6308 35.4271 27.592 35.3693C27.5473 35.3071 27.4611 35.2268 27.3333 35.1283L27.2375 35.0545L27.1309 34.9585L27.0089 34.8644L26.7891 34.6811C26.7485 34.6498 26.6852 34.6057 26.5994 34.5488C26.5181 34.4862 26.4104 34.4217 26.2764 34.3554C26.2062 34.3383 26.1227 34.3805 26.0261 34.4819C25.9281 34.573 25.8455 34.6622 25.7783 34.7493L25.7515 34.7841C25.4784 35.1385 25.2235 35.3911 24.9869 35.542C24.7547 35.6871 24.5279 35.753 24.3066 35.7399C24.0853 35.7267 23.8589 35.654 23.6274 35.5219C23.3946 35.3795 23.1388 35.2009 22.86 34.986C22.343 34.5876 22.0644 34.1923 22.0241 33.8001C21.9779 33.4035 22.172 32.9235 22.6062 32.3601C23.0449 31.7908 23.4655 31.4854 23.868 31.4437C24.2691 31.3918 24.731 31.5673 25.2538 31.9702L24.5017 32.946C24.3158 32.8027 24.1784 32.7107 24.0895 32.6699C23.9947 32.6247 23.9102 32.6383 23.8359 32.7106C23.7603 32.7727 23.6553 32.8909 23.521 33.0651C23.3867 33.2394 23.297 33.3739 23.2517 33.4686C23.211 33.5576 23.2194 33.6427 23.277 33.7242C23.3332 33.7953 23.4427 33.8936 23.6053 34.0189L23.7447 34.1263L23.9384 34.2895C23.9675 34.3119 24.0168 34.3499 24.0865 34.4037C24.1549 34.4471 24.2409 34.4856 24.3446 34.5193C24.3665 34.5269 24.4227 34.4961 24.5131 34.4269C24.6021 34.3474 24.7071 34.2292 24.8279 34.0724C25.1234 33.689 25.3982 33.4286 25.6523 33.2911C25.9005 33.1492 26.1396 33.0973 26.3694 33.1355C26.5978 33.1634 26.8291 33.2537 27.0633 33.4064C27.2916 33.5546 27.5365 33.7295 27.7979 33.9309L27.9895 34.0786C28.5123 34.4815 28.7967 34.8813 28.8429 35.2779C28.8877 35.6643 28.6907 36.1421 28.252 36.7113ZM30.4154 34.0919L28.2439 32.0981C27.7173 32.162 27.265 32.145 26.8871 32.0469C26.5092 31.9489 26.1652 31.7923 25.855 31.5771C25.5444 31.3516 25.2243 31.0876 24.8948 30.785L24.279 30.2196L25.1048 29.3202L25.3236 29.5211L25.5349 29.7301L25.705 29.8863L25.8678 30.0507C26.1324 30.2937 26.4242 30.5018 26.743 30.6751C27.0618 30.8483 27.4392 30.936 27.8753 30.9382C27.8455 30.4827 27.7307 30.1036 27.5309 29.8007C27.3258 29.4928 27.0773 29.205 26.7856 28.9372L26.6236 28.7884L26.4541 28.6477L26.2515 28.4617L26.0496 28.2912L26.8829 27.3837L27.4987 27.9492C27.8282 28.2517 28.1135 28.5535 28.3548 28.8547C28.5955 29.1454 28.7784 29.4776 28.9033 29.8511C29.0278 30.2143 29.0857 30.6608 29.0772 31.1906L31.2487 33.1844L30.4154 34.0919ZM34.9556 29.6766L34.6406 29.9169L34.324 30.1727L29.8377 24.6195L30.0875 24.4036L30.7463 23.8713C31.0943 23.5902 31.4494 23.3646 31.8116 23.1945C32.175 23.0141 32.5394 22.9459 32.905 22.99C33.2659 23.0283 33.622 23.2356 33.9731 23.6119C34.0699 23.7317 34.1719 23.8755 34.2792 24.0433C34.3819 24.2055 34.4675 24.3815 34.536 24.5712C34.5999 24.7553 34.6219 24.9402 34.6022 25.1258C34.9127 25.1484 35.1772 25.2599 35.3958 25.4605C35.6097 25.6553 35.7997 25.8554 35.9656 26.0607C36.2743 26.4429 36.481 26.7804 36.5854 27.0731C36.6899 27.3657 36.7055 27.636 36.6323 27.8837C36.5601 28.1211 36.4152 28.356 36.1976 28.5884C35.9799 28.8208 35.7057 29.0706 35.3748 29.3379L34.9556 29.6766ZM32.7523 25.8991L32.8977 25.7816C32.9491 25.7402 33.0118 25.6895 33.086 25.6296C33.1555 25.5639 33.2335 25.4679 33.32 25.3415C33.4053 25.2255 33.4224 25.0891 33.3713 24.9324C33.3258 24.7712 33.2478 24.6221 33.1372 24.4852C33.0404 24.3654 32.9357 24.2708 32.8232 24.2015C32.7106 24.1322 32.6137 24.1114 32.5325 24.1393L32.5171 24.1377C32.3751 24.1487 32.222 24.2158 32.0576 24.3392C31.8933 24.4625 31.7427 24.5795 31.6058 24.6901L31.5288 24.7523L32.5657 26.0358L32.6598 25.9597L32.7523 25.8991ZM34.779 28.3203C34.9273 28.2005 35.055 28.0785 35.1621 27.9543C35.2748 27.8255 35.3378 27.6992 35.3509 27.5754C35.3573 27.4666 35.3229 27.3482 35.2479 27.2203C35.1785 27.0878 35.0908 26.9559 34.9849 26.8247C34.9111 26.7335 34.8317 26.6468 34.7465 26.5648C34.6671 26.4781 34.5894 26.3994 34.5135 26.3288C34.4237 26.241 34.2932 26.2428 34.1218 26.3341C33.9505 26.4254 33.7906 26.531 33.6423 26.6508L33.514 26.7545L33.4011 26.8598L33.2984 26.9428L34.5667 28.4777L34.6523 28.4085L34.779 28.3203ZM37.6624 27.4913L33.5327 21.6949L34.545 20.9737L38.6747 26.77L37.6624 27.4913ZM40.5939 25.5665C39.9892 25.9411 39.4919 26.0853 39.102 25.999C38.7145 25.9026 38.3508 25.5802 38.011 25.0316L36.163 22.0486C35.8193 21.4938 35.6925 21.0245 35.7827 20.6409C35.879 20.2534 36.2296 19.8723 36.8343 19.4977C37.4327 19.127 37.9269 18.9847 38.3168 19.071C38.7091 19.1472 39.079 19.4658 39.4266 20.0269L41.0891 22.7106C41.2745 23.0098 41.4231 23.2844 41.5348 23.5344C41.6465 23.7844 41.6945 24.022 41.6789 24.2474C41.6694 24.4689 41.5807 24.6878 41.4127 24.904C41.2409 25.114 40.968 25.3348 40.5939 25.5665ZM39.987 24.545C40.2613 24.3751 40.3828 24.2092 40.3516 24.0474C40.3227 23.8755 40.2195 23.6462 40.0418 23.3594L38.3792 20.6757C38.2672 20.4949 38.1756 20.3748 38.1043 20.3154C38.0354 20.246 37.9566 20.2301 37.8678 20.2679C37.7752 20.2994 37.6354 20.3731 37.4483 20.4889C37.2613 20.6048 37.1338 20.7053 37.0659 20.7906C37.0003 20.8657 36.9801 20.9515 37.0054 21.048C37.033 21.1344 37.0951 21.2555 37.1917 21.4114L38.9019 24.1303C39.0332 24.3422 39.1461 24.4966 39.2405 24.5934C39.335 24.6901 39.4394 24.7333 39.5537 24.7229C39.668 24.7124 39.8124 24.6532 39.987 24.545ZM42.3786 24.4617L41.0238 17.2087L41.7532 16.8474L43.1422 24.0705L42.3786 24.4617ZM47.6312 21.9701L47.3542 21.193C47.236 20.8614 47.1437 20.5479 47.0773 20.2524C47.0084 19.9499 46.9951 19.6394 47.0372 19.3208C47.0768 18.9952 47.196 18.6413 47.3945 18.2592C47.0014 18.0956 46.6878 17.9038 46.4537 17.6836C46.2239 17.4541 46.0366 17.2017 45.8918 16.9263C45.7514 16.6416 45.6233 16.3369 45.5076 16.0123L45.2343 15.2455L46.3844 14.8356L46.473 15.0842L46.555 15.347L46.6252 15.5438L46.685 15.7444C46.7982 16.0622 46.9433 16.3491 47.1203 16.6052C47.2947 16.8544 47.576 17.0539 47.9642 17.2036C48.179 16.8234 48.2705 16.4794 48.2386 16.1716C48.2112 15.8544 48.1408 15.5369 48.0276 15.2191L47.9648 15.043L47.8842 14.8498L47.7956 14.6011L47.7003 14.3665L48.8608 13.9529L49.1341 14.7196C49.2473 15.0374 49.3362 15.3522 49.4006 15.664C49.4695 15.9664 49.4841 16.2804 49.4444 16.6059C49.4023 16.9246 49.282 17.275 49.0834 17.6572C49.4858 17.8251 49.8019 18.0239 50.0316 18.2534C50.2658 18.4736 50.4519 18.7225 50.5898 19.0004C50.7322 19.2688 50.8625 19.5688 50.9807 19.9004L51.2577 20.6775L50.0972 21.0911L50.0152 20.8284L49.9266 20.5797L49.8668 20.3792L49.804 20.203C49.6883 19.8783 49.5444 19.5949 49.3724 19.3525C49.1979 19.1033 48.9095 18.8947 48.5071 18.7268C48.3036 19.0951 48.2119 19.4275 48.2319 19.724C48.2495 20.0136 48.3174 20.3242 48.4356 20.6557L48.5161 20.8489L48.5863 21.0458L48.6853 21.2908L48.7813 21.5602L47.6312 21.9701ZM51.6226 20.5601L49.6355 13.7262L50.8291 13.3791L52.8162 20.2131L51.6226 20.5601ZM53.9728 19.9555L53.5838 20.0304L53.1864 20.1184L51.643 13.1482L51.9629 13.0661L52.7898 12.883C53.2266 12.7863 53.645 12.7425 54.0451 12.7516C54.4507 12.7519 54.8074 12.8532 55.1151 13.0554C55.4212 13.2505 55.6476 13.5947 55.7944 14.088C55.8277 14.2383 55.855 14.4126 55.8763 14.6106C55.896 14.8016 55.8943 14.9972 55.8711 15.1976C55.8463 15.3909 55.7837 15.5663 55.6834 15.7237C55.9513 15.8822 56.1384 16.0999 56.2448 16.3767C56.3496 16.6465 56.4305 16.9102 56.4876 17.168C56.5938 17.6477 56.6285 18.0418 56.5917 18.3504C56.5549 18.659 56.4485 18.9079 56.2726 19.0971C56.1022 19.2775 55.8679 19.4233 55.5695 19.5344C55.2711 19.6455 54.9143 19.7471 54.499 19.839L53.9728 19.9555ZM53.6826 15.5921L53.8652 15.5517C53.9296 15.5374 54.0084 15.52 54.1015 15.4994C54.1929 15.4716 54.3055 15.4204 54.4392 15.3457C54.5673 15.2798 54.6434 15.1653 54.6674 15.0023C54.6985 14.8376 54.6951 14.6694 54.657 14.4976C54.6237 14.3472 54.5721 14.2159 54.5022 14.1037C54.4323 13.9915 54.3548 13.9298 54.2697 13.9186L54.2566 13.9102C54.1246 13.8568 53.9575 13.8488 53.7555 13.886C53.5534 13.9232 53.3665 13.9609 53.1946 13.9989L53.098 14.0203L53.4547 15.6313L53.5728 15.6051L53.6826 15.5921ZM54.4188 18.6625C54.605 18.6213 54.7736 18.569 54.9248 18.5054C55.0831 18.4403 55.1958 18.3553 55.2626 18.2504C55.3168 18.1558 55.3388 18.0345 55.3285 17.8865C55.3255 17.737 55.3057 17.5799 55.2692 17.4152C55.2439 17.3006 55.2114 17.1877 55.1717 17.0763C55.1391 16.9633 55.1046 16.8583 55.0681 16.7612C55.0268 16.6427 54.9092 16.5861 54.7151 16.5915C54.521 16.5969 54.3309 16.6203 54.1447 16.6615L53.9836 16.6972L53.8356 16.7412L53.7068 16.7697L54.1587 18.7089L54.2661 18.6851L54.4188 18.6625ZM59.1391 18.9909C58.6953 19.0473 58.3365 19.0448 58.0626 18.9836C57.795 18.9141 57.5878 18.7963 57.441 18.6301C57.2933 18.4567 57.1837 18.2341 57.1122 17.9622C57.048 17.6895 56.9937 17.3785 56.9493 17.0293L58.1605 16.8754L58.1869 17.0827L58.2009 17.2805L58.2231 17.4551C58.2462 17.637 58.2947 17.7565 58.3685 17.8136C58.4423 17.8708 58.621 17.8813 58.9048 17.8453L59.0903 17.8217C59.2703 17.784 59.3994 17.7528 59.4776 17.7281C59.5621 17.6952 59.6111 17.6446 59.6246 17.5764C59.6372 17.5008 59.6333 17.3831 59.613 17.223L59.5977 17.103L59.5906 16.9597L59.5712 16.807L59.546 16.5219C59.5395 16.4709 59.5262 16.395 59.506 16.2941C59.493 16.1922 59.4628 16.0704 59.4152 15.9286C59.3777 15.8669 59.289 15.8375 59.1489 15.8405C59.0152 15.8353 58.8938 15.8397 58.7847 15.8535L58.741 15.8591C58.2972 15.9155 57.9384 15.913 57.6645 15.8518C57.3979 15.7895 57.1911 15.6754 57.0444 15.5092C56.8976 15.3431 56.7893 15.1314 56.7197 14.8741C56.6564 14.6086 56.6025 14.3013 56.5581 13.9521C56.4758 13.3046 56.5594 12.8283 56.8089 12.5231C57.0575 12.2106 57.5346 12.0095 58.2403 11.9198C58.9532 11.8292 59.4664 11.9118 59.7798 12.1676C60.0996 12.4153 60.3011 12.8665 60.3843 13.5212L59.1622 13.6766C59.1326 13.4438 59.1009 13.2815 59.067 13.1897C59.0323 13.0906 58.963 13.0403 58.8593 13.0386C58.762 13.0288 58.6042 13.0378 58.3859 13.0656C58.1677 13.0933 58.009 13.1245 57.91 13.1593C57.8182 13.1932 57.7637 13.2592 57.7466 13.3575C57.7359 13.4476 57.7435 13.5944 57.7694 13.7981L57.7916 13.9727L57.8126 14.2251C57.8172 14.2615 57.8251 14.3233 57.8362 14.4106C57.8536 14.4897 57.887 14.5779 57.9363 14.6751C57.9463 14.696 58.0078 14.7141 58.1206 14.7293C58.2398 14.7363 58.3976 14.7273 58.594 14.7024C59.0741 14.6414 59.4525 14.6524 59.7292 14.7355C60.005 14.8113 60.2104 14.9442 60.3454 15.134C60.4868 15.3156 60.5859 15.5433 60.6429 15.8169C60.6989 16.0833 60.7477 16.3802 60.7893 16.7076L60.8199 16.9476C60.9031 17.6024 60.8204 18.086 60.5718 18.3985C60.3296 18.7028 59.852 18.9003 59.1391 18.9909ZM62.5157 18.6795L62.4029 15.7336C61.9867 15.4047 61.6804 15.0715 61.484 14.7341C61.2876 14.3967 61.1566 14.0421 61.091 13.6703C61.0324 13.291 60.9946 12.8778 60.9775 12.4308L60.9455 11.5954L62.1656 11.5487L62.177 11.8454L62.1773 12.1426L62.1862 12.3735L62.184 12.6047C62.1978 12.9638 62.2554 13.3175 62.3568 13.6659C62.4582 14.0143 62.6616 14.3441 62.9671 14.6553C63.2695 14.3134 63.458 13.965 63.5325 13.6099C63.6067 13.2474 63.6362 12.8684 63.621 12.4726L63.6126 12.2528L63.5932 12.0334L63.5827 11.7586L63.5616 11.4952L64.7927 11.4481L64.8247 12.2835C64.8418 12.7305 64.8283 13.1456 64.7843 13.5289C64.7473 13.9046 64.6402 14.2683 64.4628 14.62C64.2925 14.9641 64.0163 15.3196 63.634 15.6865L63.7468 18.6323L62.5157 18.6795ZM68.8505 18.7791L68.4581 18.7248L68.0536 18.6803L68.8354 11.5842L69.1646 11.6094L70.0065 11.7022C70.4511 11.7511 70.8614 11.8443 71.2373 11.9816C71.6213 12.1125 71.9264 12.3231 72.1526 12.6137C72.3796 12.8969 72.4832 13.2956 72.4634 13.8099C72.4466 13.963 72.4164 14.1367 72.3728 14.3311C72.3301 14.5182 72.2655 14.7029 72.179 14.8852C72.0933 15.0602 71.9776 15.2061 71.832 15.3228C72.0346 15.5591 72.1418 15.8255 72.1534 16.1218C72.1658 16.4109 72.1576 16.6867 72.1287 16.9491C72.0748 17.4375 71.9809 17.8218 71.8467 18.1022C71.7125 18.3825 71.5317 18.5839 71.3043 18.7064C71.0849 18.8224 70.8161 18.885 70.4978 18.8942C70.1796 18.9034 69.8091 18.8847 69.3863 18.8382L68.8505 18.7791ZM69.98 14.5544L70.1658 14.5749C70.2315 14.5821 70.3116 14.5909 70.4064 14.6014C70.502 14.6045 70.625 14.5923 70.7756 14.5646C70.9182 14.5434 71.027 14.4595 71.1022 14.3128C71.1846 14.167 71.2355 14.0066 71.2548 13.8317C71.2717 13.6786 71.265 13.5377 71.235 13.4089C71.2049 13.2802 71.1513 13.1969 71.0744 13.1589L71.0646 13.1467C70.9569 13.0537 70.8013 12.9923 70.598 12.9625C70.3947 12.9327 70.2056 12.9082 70.0307 12.8889L69.9323 12.8781L69.7516 14.5182L69.8718 14.5314L69.98 14.5544ZM69.6889 17.6984C69.8784 17.7193 70.055 17.724 70.2186 17.7125C70.3894 17.7018 70.5234 17.6576 70.6205 17.5797C70.7022 17.5076 70.7621 17.3998 70.8 17.2565C70.8452 17.1139 70.8771 16.9588 70.8955 16.7911C70.9084 16.6745 70.9139 16.5571 70.9122 16.4388C70.9178 16.3214 70.9189 16.2109 70.9156 16.1072C70.9146 15.9817 70.8214 15.8903 70.6359 15.8329C70.4504 15.7756 70.2629 15.7365 70.0734 15.7156L69.9094 15.6975L69.7551 15.6916L69.6239 15.6772L69.4277 17.6586L69.5371 17.6706L69.6889 17.6984ZM72.2979 19.1603L73.5247 12.1498L74.7491 12.3641L73.5223 19.3745L72.2979 19.1603ZM75.7408 19.8912C75.0489 19.7262 74.5962 19.475 74.3826 19.1376C74.1779 18.7948 74.1504 18.3095 74.3001 17.6817L75.114 14.2684C75.2654 13.6336 75.5089 13.2129 75.8446 13.0065C76.1875 12.8018 76.7049 12.7819 77.3968 12.9469C78.0816 13.1102 78.5308 13.3606 78.7443 13.698C78.9667 14.0299 79.0014 14.5169 78.8483 15.1589L78.116 18.2298C78.0343 18.5722 77.9442 18.8711 77.8456 19.1266C77.747 19.382 77.6122 19.5836 77.4413 19.7313C77.2775 19.8807 77.0597 19.972 76.788 20.0052C76.5179 20.0313 76.1688 19.9933 75.7408 19.8912ZM76.0378 18.7407C76.3517 18.8156 76.555 18.7849 76.6478 18.6487C76.7494 18.5071 76.8394 18.2722 76.9176 17.9441L77.6499 14.8732C77.6992 14.6663 77.7198 14.5167 77.7117 14.4243C77.7124 14.3264 77.6681 14.2593 77.5788 14.2229C77.4911 14.1794 77.3403 14.1321 77.1263 14.0811C76.9123 14.0301 76.7511 14.0105 76.6428 14.0223C76.5432 14.0288 76.4681 14.0749 76.4175 14.1609C76.3757 14.2414 76.3335 14.3708 76.291 14.5491L75.5673 17.6786C75.5095 17.9211 75.4795 18.11 75.4775 18.2452C75.4754 18.3804 75.5183 18.4849 75.6063 18.5586C75.6942 18.6324 75.8381 18.6931 76.0378 18.7407ZM77.7881 20.3804L81.9674 14.2997L82.7384 14.5612L78.6043 20.6449L77.7881 20.3804ZM83.2598 22.3421L83.6146 21.5973C83.766 21.2795 83.9229 20.9928 84.0853 20.7371C84.2508 20.4748 84.4613 20.2461 84.7167 20.051C84.9753 19.8492 85.31 19.6837 85.7208 19.5545C85.5591 19.1607 85.4736 18.8032 85.4642 18.4819C85.4645 18.1572 85.5111 17.8463 85.6038 17.5493C85.7063 17.2489 85.8317 16.9431 85.9799 16.6319L86.33 15.897L87.4323 16.4221L87.3188 16.6605L87.1906 16.904L87.1007 17.0927L87.0009 17.2766C86.8558 17.5812 86.755 17.8865 86.6986 18.1926C86.6452 18.4922 86.7026 18.8322 86.8706 19.2128C87.2915 19.0965 87.5997 18.9184 87.7952 18.6785C88.0005 18.4351 88.1757 18.1612 88.3208 17.8566L88.4012 17.6878L88.4811 17.4944L88.5947 17.256L88.6935 17.0229L89.8058 17.5527L89.4557 18.2876C89.3106 18.5922 89.1504 18.8773 88.9751 19.1431C88.8095 19.4054 88.5975 19.6374 88.3389 19.8391C88.0835 20.0343 87.7504 20.1964 87.3395 20.3256C87.5047 20.7292 87.5871 21.0934 87.5867 21.4181C87.5961 21.7394 87.5512 22.047 87.4518 22.3408C87.3622 22.6312 87.2418 22.9352 87.0904 23.253L86.7356 23.9978L85.6233 23.468L85.7515 23.2245L85.8651 22.9861L85.9649 22.8022L86.0453 22.6333C86.1935 22.3222 86.2927 22.0201 86.3429 21.7273C86.3962 21.4277 86.3403 21.0762 86.1752 20.6726C85.7706 20.7886 85.4705 20.9583 85.2746 21.1818C85.082 21.3987 84.9099 21.666 84.7586 21.9838L84.6786 22.1772L84.5887 22.3659L84.4851 22.609L84.3621 22.8672L83.2598 22.3421ZM87.084 24.1768L90.5063 17.9366L91.5961 18.5343L88.1739 24.7745L87.084 24.1768ZM89.1538 25.4039L88.8269 25.1801L88.4848 24.9597L92.3517 18.9587L92.6351 19.1282L93.3471 19.587C93.7231 19.8293 94.0487 20.0958 94.3237 20.3864C94.6089 20.6749 94.7879 20.9996 94.8607 21.3605C94.9374 21.7153 94.8521 22.1184 94.6049 22.5698C94.5215 22.6992 94.4169 22.8412 94.2912 22.9957C94.1694 23.1441 94.0291 23.2805 93.8704 23.405C93.7156 23.5234 93.547 23.6023 93.3645 23.6418C93.4404 23.9437 93.4174 24.2298 93.2955 24.5002C93.1776 24.7645 93.0471 25.0076 92.9041 25.2295C92.638 25.6425 92.3823 25.9445 92.1371 26.1354C91.8919 26.3264 91.6402 26.4259 91.382 26.434C91.134 26.4399 90.8655 26.376 90.5766 26.2422C90.2877 26.1083 89.9645 25.9262 89.6069 25.6958L89.1538 25.4039ZM92.0502 22.1275L92.2074 22.2288C92.2629 22.2645 92.3307 22.3082 92.4109 22.3599C92.495 22.4053 92.6106 22.4493 92.7577 22.4918C92.8947 22.5364 93.0295 22.5099 93.1623 22.4122C93.3012 22.3185 93.4183 22.1977 93.5136 22.0498C93.597 21.9203 93.654 21.7913 93.6846 21.6626C93.7151 21.534 93.7044 21.4355 93.6525 21.3672L93.6492 21.352C93.5943 21.2206 93.4825 21.0962 93.3139 20.9788C93.1452 20.8615 92.9869 20.7551 92.839 20.6598L92.7558 20.6061L91.862 21.9931L91.9637 22.0587L92.0502 22.1275ZM90.3864 24.811C90.5467 24.9143 90.7026 24.9973 90.8541 25.0601C91.0118 25.1268 91.1514 25.147 91.2731 25.1207C91.3784 25.0926 91.48 25.0228 91.578 24.9115C91.6821 24.8041 91.7798 24.6795 91.8712 24.5377C91.9347 24.4391 91.9921 24.3365 92.0434 24.2299C92.1007 24.1273 92.1511 24.0289 92.1944 23.9346C92.2496 23.8219 92.207 23.6985 92.0665 23.5644C91.9261 23.4303 91.7758 23.3116 91.6155 23.2083L91.4768 23.1189L91.3414 23.0448L91.2304 22.9733L90.1705 24.6588L90.263 24.7184L90.3864 24.811ZM93.4803 28.3969C93.1276 28.1217 92.8765 27.8654 92.727 27.6278C92.5877 27.389 92.5254 27.159 92.5398 26.9378C92.5588 26.7108 92.6396 26.4761 92.7821 26.2338C92.9303 25.9961 93.1127 25.7384 93.3292 25.4609L94.2919 26.2119L94.1634 26.3767L94.0329 26.5261L93.9247 26.6648C93.8119 26.8094 93.7612 26.928 93.7727 27.0206C93.7841 27.1132 93.9026 27.2475 94.1281 27.4234L94.2755 27.5385C94.4291 27.6397 94.5422 27.7093 94.6148 27.7473C94.6977 27.7841 94.7682 27.7833 94.8261 27.7448C94.8886 27.7005 94.9694 27.6147 95.0687 27.4875L95.1431 27.3921L95.2397 27.2861L95.3344 27.1647L95.519 26.946C95.5506 26.9055 95.5951 26.8425 95.6524 26.7571C95.7156 26.6761 95.7807 26.5688 95.8478 26.4351C95.8653 26.3651 95.8236 26.2814 95.7227 26.1841C95.6322 26.0856 95.5436 26.0025 95.4568 25.9348L95.4221 25.9078C95.0694 25.6326 94.8183 25.3762 94.6688 25.1387C94.5251 24.9057 94.4605 24.6785 94.4749 24.4573C94.4894 24.2361 94.5634 24.0101 94.6968 23.7794C94.8406 23.5474 95.0208 23.2927 95.2373 23.0151C95.6387 22.5005 96.0356 22.2242 96.428 22.1862C96.8249 22.1424 97.3038 22.3393 97.8647 22.7768C98.4313 23.2188 98.7343 23.6412 98.7736 24.0439C98.8231 24.4453 98.6449 24.9062 98.239 25.4266L97.2676 24.6688C97.412 24.4838 97.5048 24.3469 97.5461 24.2582C97.5919 24.1637 97.5788 24.0791 97.5069 24.0044C97.4452 23.9284 97.3277 23.8228 97.1542 23.6875C96.9808 23.5521 96.8468 23.4616 96.7523 23.4158C96.6636 23.3745 96.5784 23.3824 96.4966 23.4395C96.4252 23.4954 96.3263 23.6042 96.2 23.7661L96.0917 23.9049L95.9274 24.0976C95.9049 24.1265 95.8665 24.1757 95.8124 24.2451C95.7686 24.3132 95.7295 24.399 95.6953 24.5025C95.6875 24.5243 95.718 24.5807 95.7867 24.6715C95.8657 24.761 95.9832 24.8666 96.1393 24.9884C96.5209 25.2861 96.7797 25.5624 96.9157 25.8173C97.0562 26.0664 97.1067 26.3058 97.0671 26.5353C97.0378 26.7636 96.9462 26.9944 96.7921 27.2276C96.6426 27.4551 96.4663 27.6989 96.2633 27.9591L96.1145 28.1499C95.7085 28.6703 95.3071 28.9524 94.9102 28.9962C94.5235 29.0387 94.0469 28.8389 93.4803 28.3969ZM96.0866 30.5756L98.0935 28.4162C98.0327 27.8892 98.0525 27.437 98.1529 27.0598C98.2532 26.6825 98.4119 26.3394 98.6289 26.0305C98.8563 25.7212 99.1222 25.4028 99.4267 25.0751L99.9959 24.4627L100.89 25.2939L100.688 25.5115L100.478 25.7216L100.321 25.8908L100.155 26.0525C99.9106 26.3157 99.7007 26.6062 99.5255 26.9239C99.3504 27.2417 99.2604 27.6186 99.2556 28.0546C99.7112 28.0275 100.091 27.9151 100.395 27.7171C100.704 27.5138 100.994 27.2671 101.263 26.9771L101.413 26.8159L101.555 26.6473L101.742 26.4458L101.914 26.245L102.816 27.0837L102.247 27.6961C101.942 28.0237 101.639 28.3073 101.336 28.5466C101.044 28.7856 100.711 28.9665 100.336 29.0891C99.9725 29.2114 99.5257 29.2667 98.996 29.255L96.9891 31.4144L96.0866 30.5756ZM100.479 35.1396L100.241 34.8233L99.987 34.5053L105.565 30.0503L105.78 30.3013L106.308 30.9631C106.588 31.3127 106.811 31.669 106.979 32.0322C107.158 32.3966 107.224 32.7614 107.178 33.1267C107.137 33.4874 106.928 33.8423 106.55 34.1913C106.429 34.2874 106.285 34.3886 106.117 34.495C105.954 34.5968 105.777 34.6814 105.587 34.7488C105.403 34.8116 105.218 34.8327 105.032 34.8119C105.008 35.1222 104.895 35.3861 104.693 35.6036C104.497 35.8164 104.296 36.0052 104.09 36.17C103.706 36.4766 103.367 36.6813 103.074 36.7841C102.781 36.887 102.51 36.901 102.263 36.8264C102.026 36.7529 101.792 36.6067 101.561 36.3877C101.33 36.1688 101.081 35.8931 100.816 35.5608L100.479 35.1396ZM104.269 32.9576L104.386 33.1037C104.427 33.1553 104.478 33.2183 104.537 33.2928C104.602 33.3628 104.698 33.4413 104.824 33.5284C104.939 33.6144 105.076 33.6323 105.233 33.582C105.394 33.5375 105.544 33.4603 105.681 33.3505C105.801 33.2544 105.897 33.1503 105.967 33.0381C106.037 32.9259 106.058 32.8291 106.03 32.7478L106.032 32.7323C106.022 32.5903 105.956 32.4368 105.833 32.2718C105.711 32.1068 105.595 31.9555 105.485 31.818L105.423 31.7406L104.134 32.7703L104.209 32.8648L104.269 32.9576ZM101.837 34.9707C101.956 35.1197 102.077 35.248 102.201 35.3558C102.329 35.4693 102.455 35.533 102.578 35.5468C102.687 35.5538 102.806 35.5201 102.934 35.4458C103.067 35.3771 103.199 35.2902 103.331 35.185C103.423 35.1117 103.51 35.0328 103.593 34.9481C103.68 34.8692 103.759 34.7919 103.83 34.7164C103.918 34.6271 103.917 34.4966 103.827 34.3247C103.736 34.1528 103.632 33.9924 103.513 33.8434L103.41 33.7145L103.305 33.601L103.223 33.4979L101.681 34.7575L101.749 34.8435L101.837 34.9707ZM102.647 37.8555L108.471 33.7652L109.185 34.7824L103.361 38.8727L102.647 37.8555ZM104.556 40.8023C104.185 40.1956 104.044 39.6975 104.132 39.3081C104.231 38.9211 104.555 38.5592 105.106 38.2224L108.099 36.3909C108.655 36.0502 109.125 35.926 109.508 36.0182C109.895 36.1167 110.275 36.4694 110.646 37.0761C111.013 37.6766 111.153 38.1716 111.064 38.561C110.986 38.9528 110.665 39.321 110.102 39.6654L107.41 41.3132C107.109 41.497 106.834 41.644 106.583 41.7544C106.333 41.8647 106.095 41.9114 105.87 41.8945C105.648 41.8839 105.43 41.794 105.214 41.6248C105.005 41.4518 104.786 41.1776 104.556 40.8023ZM105.581 40.201C105.75 40.4763 105.915 40.5987 106.077 40.5684C106.249 40.5404 106.479 40.4385 106.767 40.2624L109.459 38.6146C109.641 38.5036 109.761 38.4126 109.821 38.3416C109.891 38.2731 109.907 38.1944 109.87 38.1054C109.839 38.0126 109.766 37.8724 109.651 37.6847C109.536 37.4971 109.437 37.369 109.352 37.3006C109.277 37.2346 109.191 37.2139 109.095 37.2387C109.008 37.2659 108.887 37.3273 108.73 37.423L106.002 39.1182C105.789 39.2484 105.634 39.3604 105.537 39.4543C105.44 39.5483 105.396 39.6524 105.406 39.7668C105.416 39.8811 105.474 40.0259 105.581 40.201ZM105.654 42.597L112.912 41.2721L113.27 42.0031L106.042 43.3622L105.654 42.597ZM108.121 47.8547L108.9 47.5822C109.232 47.4659 109.546 47.3754 109.842 47.3106C110.145 47.2435 110.455 47.2319 110.774 47.2758C111.099 47.3173 111.452 47.4384 111.833 47.6391C111.999 47.247 112.193 46.9345 112.414 46.7016C112.645 46.4731 112.898 46.2873 113.175 46.144C113.46 46.0052 113.766 45.8789 114.091 45.765L114.859 45.496L115.263 46.6485L115.013 46.7357L114.75 46.8162L114.553 46.8852L114.352 46.9439C114.034 47.0553 113.746 47.1988 113.489 47.3743C113.239 47.5473 113.038 47.8275 112.886 48.2148C113.265 48.4318 113.608 48.5252 113.916 48.4951C114.233 48.4694 114.551 48.4009 114.87 48.2894L115.046 48.2276L115.24 48.1482L115.489 48.061L115.724 47.967L116.131 49.1298L115.363 49.3988C115.045 49.5102 114.729 49.5973 114.417 49.6599C114.114 49.7271 113.8 49.7399 113.475 49.6984C113.156 49.6545 112.807 49.5321 112.426 49.3314C112.255 49.7329 112.055 50.0478 111.824 50.2763C111.603 50.5092 111.353 50.6938 111.074 50.8302C110.805 50.9711 110.504 51.0997 110.172 51.216L109.393 51.4885L108.986 50.3257L109.249 50.2452L109.498 50.158L109.699 50.0993L109.876 50.0376C110.201 49.9237 110.485 49.7814 110.729 49.6108C110.979 49.4378 111.189 49.1505 111.359 48.749C110.992 48.5435 110.66 48.4499 110.364 48.4682C110.074 48.4842 109.763 48.5503 109.431 48.6666L109.237 48.746L109.04 48.8151L108.794 48.9127L108.525 49.0072L108.121 47.8547ZM109.507 51.8505L116.354 49.9096L116.693 51.1055L109.846 53.0464L109.507 51.8505ZM110.098 54.2084L110.025 53.819L109.939 53.4211L116.918 51.9169L116.998 52.2371L117.177 53.0651C117.271 53.5024 117.313 53.9211 117.301 54.3211C117.299 54.7267 117.195 55.0828 116.991 55.3894C116.795 55.6943 116.449 55.9188 115.955 56.0629C115.805 56.0953 115.63 56.1216 115.432 56.1419C115.241 56.1605 115.045 56.1577 114.845 56.1333C114.652 56.1075 114.477 56.0439 114.32 55.9427C114.16 56.2097 113.941 56.3956 113.664 56.5005C113.394 56.6037 113.129 56.6832 112.871 56.7388C112.391 56.8424 111.997 56.8748 111.688 56.8363C111.38 56.7977 111.132 56.69 110.943 56.513C110.764 56.3416 110.619 56.1064 110.51 55.8075C110.401 55.5085 110.301 55.1511 110.211 54.7353L110.098 54.2084ZM114.463 53.9427L114.502 54.1255C114.516 54.19 114.533 54.2689 114.553 54.3621C114.581 54.4537 114.631 54.5666 114.705 54.7007C114.77 54.8292 114.884 54.9058 115.047 54.9307C115.212 54.9628 115.38 54.9603 115.552 54.9232C115.702 54.8908 115.834 54.8399 115.947 54.7706C116.059 54.7013 116.121 54.6242 116.133 54.5392L116.141 54.5261C116.196 54.3944 116.205 54.2274 116.169 54.0251C116.132 53.8229 116.096 53.6357 116.059 53.4637L116.038 53.3669L114.425 53.7146L114.45 53.8328L114.463 53.9427ZM111.388 54.6617C111.428 54.8481 111.48 55.017 111.543 55.1685C111.607 55.3272 111.691 55.4403 111.796 55.5078C111.89 55.5625 112.011 55.5852 112.159 55.5758C112.309 55.5735 112.466 55.5546 112.631 55.5191C112.746 55.4944 112.859 55.4625 112.97 55.4234C113.084 55.3915 113.189 55.3576 113.286 55.3216C113.405 55.281 113.462 55.1637 113.458 54.9695C113.453 54.7754 113.431 54.5852 113.391 54.3988L113.356 54.2375L113.313 54.0893L113.285 53.9602L111.343 54.4013L111.367 54.5088L111.388 54.6617ZM111.041 59.3886C110.985 58.9447 110.989 58.5858 111.051 58.3121C111.121 58.0447 111.24 57.8379 111.406 57.6916C111.58 57.5444 111.803 57.4354 112.075 57.3647C112.348 57.3012 112.659 57.2478 113.008 57.2044L113.159 58.4161L112.952 58.4419L112.754 58.4553L112.579 58.477C112.397 58.4996 112.277 58.5477 112.22 58.6214C112.163 58.695 112.152 58.8737 112.187 59.1575L112.21 59.3431C112.247 59.5232 112.278 59.6524 112.302 59.7307C112.335 59.8153 112.386 59.8645 112.454 59.8781C112.529 59.8909 112.647 59.8874 112.807 59.8675L112.927 59.8526L113.07 59.8459L113.223 59.8269L113.508 59.8026C113.559 59.7963 113.635 59.7831 113.736 59.7632C113.838 59.7505 113.96 59.7206 114.102 59.6734C114.164 59.6362 114.194 59.5475 114.191 59.4075C114.197 59.2737 114.193 59.1523 114.179 59.0432L114.174 58.9995C114.118 58.5556 114.122 58.1967 114.184 57.923C114.247 57.6565 114.362 57.4502 114.528 57.3038C114.695 57.1575 114.907 57.0499 115.164 56.981C115.43 56.9184 115.737 56.8655 116.087 56.8221C116.734 56.7417 117.211 56.8266 117.515 57.077C117.827 57.3265 118.027 57.8042 118.114 58.5101C118.203 59.2233 118.119 59.7362 117.862 60.0489C117.613 60.368 117.162 60.5682 116.507 60.6495L116.355 59.4269C116.588 59.398 116.75 59.3667 116.842 59.3332C116.941 59.2987 116.992 59.2296 116.994 59.1259C117.004 59.0286 116.995 58.8708 116.968 58.6524C116.941 58.4341 116.91 58.2754 116.876 58.1762C116.842 58.0843 116.776 58.0297 116.678 58.0123C116.588 58.0013 116.441 58.0085 116.237 58.0338L116.063 58.0555L115.81 58.0757C115.774 58.0803 115.712 58.0879 115.625 58.0988C115.545 58.116 115.457 58.1491 115.36 58.1982C115.339 58.2082 115.321 58.2695 115.305 58.3823C115.298 58.5015 115.306 58.6593 115.331 58.8558C115.39 59.3361 115.378 59.7145 115.294 59.9909C115.218 60.2665 115.084 60.4715 114.894 60.6059C114.712 60.7468 114.484 60.8453 114.21 60.9015C113.944 60.9567 113.647 61.0047 113.319 61.0454L113.079 61.0752C112.424 61.1566 111.941 61.0725 111.629 60.823C111.325 60.5799 111.129 60.1018 111.041 59.3886ZM111.337 62.7551L114.284 62.6599C114.615 62.2457 114.95 61.9414 115.289 61.747C115.627 61.5527 115.983 61.4238 116.355 61.3604C116.735 61.3041 117.148 61.2688 117.595 61.2544L118.431 61.2274L118.47 62.4477L118.173 62.4573L117.876 62.4559L117.645 62.4634L117.414 62.4598C117.055 62.4714 116.701 62.5269 116.352 62.6262C116.003 62.7255 115.672 62.927 115.359 63.2305C115.699 63.5351 116.046 63.7256 116.401 63.8022C116.763 63.8786 117.142 63.9104 117.537 63.8976L117.757 63.8905L117.977 63.8724L118.252 63.8635L118.515 63.844L118.555 65.0754L117.719 65.1023C117.272 65.1168 116.857 65.1008 116.474 65.0545C116.099 65.0153 115.736 64.9059 115.385 64.7265C115.042 64.5541 114.688 64.2757 114.324 63.8913L111.377 63.9864L111.337 62.7551ZM111.205 69.0907L111.261 68.6986L111.308 68.2943L118.4 69.1172L118.373 69.4462L118.275 70.2876C118.223 70.7319 118.128 71.1417 117.988 71.5167C117.855 71.9 117.643 72.2038 117.351 72.4284C117.067 72.6537 116.667 72.7551 116.153 72.7323C116 72.7146 115.827 72.6833 115.632 72.6387C115.446 72.5948 115.261 72.5292 115.079 72.4416C114.905 72.3549 114.76 72.2384 114.644 72.0921C114.406 72.2934 114.139 72.399 113.843 72.4089C113.554 72.4196 113.278 72.4098 113.016 72.3794C112.528 72.3227 112.144 72.2265 111.864 72.0907C111.585 71.955 111.385 71.773 111.263 71.5448C111.149 71.3248 111.088 71.0556 111.08 70.7373C111.073 70.419 111.094 70.0486 111.143 69.6261L111.205 69.0907ZM115.423 70.2446L115.401 70.4303C115.394 70.4959 115.384 70.576 115.373 70.6707C115.37 70.7663 115.381 70.8894 115.408 71.0402C115.428 71.1828 115.512 71.2921 115.658 71.3682C115.803 71.4515 115.963 71.5033 116.138 71.5236C116.291 71.5413 116.432 71.5355 116.561 71.5062C116.69 71.4768 116.774 71.4238 116.812 71.347L116.824 71.3374C116.918 71.2301 116.98 71.0749 117.011 70.8718C117.042 70.6687 117.068 70.4797 117.088 70.3049L117.099 70.2066L115.46 70.0164L115.447 70.1366L115.423 70.2446ZM112.281 69.9353C112.259 70.1247 112.253 70.3013 112.263 70.4649C112.273 70.6358 112.317 70.7701 112.394 70.8676C112.466 70.9498 112.573 71.0102 112.716 71.049C112.858 71.095 113.013 71.1278 113.181 71.1472C113.298 71.1607 113.415 71.167 113.533 71.1659C113.651 71.1721 113.761 71.1739 113.865 71.1712C113.99 71.171 114.082 71.0783 114.141 70.8931C114.199 70.7079 114.239 70.5207 114.261 70.3313L114.28 70.1674L114.287 70.0131L114.302 69.882L112.322 69.6744L112.309 69.7836L112.281 69.9353ZM110.804 72.5317L117.806 73.808L117.583 75.0308L110.581 73.7545L110.804 72.5317ZM110.05 75.9739C110.219 75.2829 110.473 74.8317 110.812 74.6201C111.156 74.4175 111.641 74.3928 112.268 74.5463L115.677 75.3805C116.311 75.5357 116.73 75.7818 116.934 76.1187C117.137 76.4628 117.154 76.9802 116.985 77.6712C116.817 78.355 116.564 78.8027 116.225 79.0142C115.892 79.2346 115.405 79.2664 114.764 79.1095L111.697 78.3589C111.356 78.2752 111.057 78.1833 110.802 78.0832C110.548 77.983 110.347 77.8471 110.2 77.6753C110.052 77.5106 109.962 77.2923 109.93 77.0203C109.906 76.7501 109.946 76.4012 110.05 75.9739ZM111.199 76.2777C111.122 76.5911 111.152 76.7946 111.287 76.8882C111.428 76.9907 111.663 77.082 111.99 77.1622L115.057 77.9128C115.263 77.9634 115.413 77.9848 115.505 77.9773C115.603 77.9786 115.671 77.9347 115.707 77.8456C115.752 77.7582 115.8 77.6077 115.852 77.394C115.904 77.1803 115.925 77.0192 115.914 76.9108C115.908 76.8112 115.862 76.7358 115.776 76.6847C115.696 76.6424 115.567 76.5994 115.389 76.5558L112.264 75.8136C112.022 75.7543 111.833 75.7232 111.698 75.7203C111.563 75.7174 111.458 75.7597 111.384 75.8472C111.309 75.9348 111.248 76.0782 111.199 76.2777ZM109.547 78.0241L115.61 82.2287L115.346 82.9986L109.279 78.8392L109.547 78.0241ZM107.564 83.4811L108.307 83.8404C108.624 83.9937 108.91 84.1523 109.164 84.3162C109.426 84.4834 109.653 84.6952 109.847 84.9518C110.047 85.2116 110.21 85.5473 110.337 85.9589C110.732 85.7995 111.09 85.7161 111.411 85.7087C111.736 85.711 112.047 85.7594 112.343 85.8539C112.643 85.9582 112.948 86.0854 113.258 86.2355L113.991 86.59L113.459 87.6891L113.222 87.5742L112.979 87.4445L112.791 87.3535L112.607 87.2526C112.304 87.1057 111.999 87.0031 111.693 86.9448C111.394 86.8896 111.054 86.9449 110.672 87.1106C110.786 87.5322 110.962 87.8415 111.201 88.0385C111.443 88.2452 111.716 88.422 112.019 88.5689L112.188 88.6504L112.381 88.7315L112.618 88.8465L112.851 88.9467L112.314 90.0558L111.582 89.7013C111.278 89.5544 110.994 89.3925 110.729 89.2155C110.468 89.0484 110.237 88.835 110.037 88.5752C109.843 88.3186 109.683 87.9845 109.556 87.5729C109.152 87.7356 108.787 87.8158 108.462 87.8135C108.141 87.821 107.834 87.7742 107.541 87.6731C107.251 87.5818 106.947 87.4594 106.631 87.3062L105.888 86.9469L106.424 85.8378L106.667 85.9675L106.905 86.0825L107.088 86.1834L107.256 86.2648C107.567 86.4149 107.868 86.5159 108.161 86.5679C108.46 86.623 108.812 86.5692 109.216 86.4065C109.103 86.0012 108.935 85.7001 108.713 85.5029C108.497 85.3089 108.231 85.1353 107.914 84.982L107.721 84.9009L107.533 84.8099L107.29 84.7048L107.033 84.5803L107.564 83.4811ZM105.708 87.2907L111.924 90.7571L111.319 91.8427L105.103 88.3763L105.708 87.2907ZM104.463 89.3666L104.687 89.0403L104.909 88.6989L110.898 92.5833L110.728 92.8661L110.267 93.5768C110.024 93.9521 109.756 94.2769 109.465 94.5511C109.176 94.8355 108.85 95.0135 108.489 95.0852C108.134 95.1609 107.731 95.0745 107.281 94.8259C107.152 94.7421 107.01 94.6371 106.856 94.5109C106.708 94.3887 106.572 94.2481 106.448 94.0889C106.33 93.9338 106.251 93.765 106.212 93.5824C105.91 93.6574 105.624 93.6336 105.354 93.5109C105.09 93.3922 104.847 93.261 104.626 93.1174C104.214 92.85 103.912 92.5935 103.722 92.3477C103.532 92.102 103.433 91.85 103.426 91.5918C103.421 91.3437 103.485 91.0754 103.62 90.7869C103.755 90.4984 103.938 90.1757 104.169 89.8188L104.463 89.3666ZM107.73 92.2725L107.629 92.4294C107.593 92.4848 107.549 92.5525 107.497 92.6325C107.451 92.7165 107.407 92.8319 107.364 92.9789C107.319 93.1158 107.345 93.2507 107.442 93.3837C107.536 93.5229 107.656 93.6404 107.804 93.7361C107.933 93.8199 108.062 93.8773 108.191 93.9082C108.319 93.9391 108.418 93.9287 108.486 93.877L108.501 93.8738C108.633 93.8192 108.758 93.7078 108.875 93.5395C108.993 93.3712 109.1 93.2132 109.196 93.0656L109.25 92.9825L107.865 92.0847L107.8 92.1862L107.73 92.2725ZM105.052 90.6009C104.948 90.7609 104.865 90.9165 104.801 91.0679C104.734 91.2253 104.714 91.3649 104.74 91.4866C104.767 91.5921 104.837 91.6939 104.948 91.7922C105.055 91.8966 105.179 91.9947 105.321 92.0865C105.419 92.1503 105.522 92.208 105.628 92.2595C105.731 92.3172 105.829 92.3678 105.923 92.4114C106.035 92.4669 106.159 92.4247 106.294 92.2847C106.428 92.1446 106.547 91.9946 106.651 91.8347L106.741 91.6962L106.815 91.561L106.887 91.4503L105.205 90.3854L105.145 90.4777L105.052 90.6009ZM101.458 93.672C101.736 93.3209 101.993 93.0713 102.232 92.9232C102.471 92.7854 102.702 92.7243 102.923 92.7401C103.15 92.7604 103.384 92.8425 103.625 92.9865C103.862 93.1361 104.119 93.32 104.395 93.5382L103.638 94.4965L103.474 94.3669L103.326 94.2356L103.188 94.1265C103.044 94.0129 102.926 93.9616 102.833 93.9724C102.74 93.9833 102.605 94.101 102.428 94.3255L102.312 94.4722C102.21 94.6252 102.14 94.7379 102.101 94.8103C102.064 94.893 102.064 94.9634 102.103 95.0216C102.146 95.0843 102.232 95.1657 102.358 95.2656L102.453 95.3406L102.559 95.4379L102.68 95.5333L102.897 95.7192C102.937 95.751 103 95.7958 103.085 95.8537C103.166 95.9173 103.273 95.9831 103.406 96.051C103.476 96.0688 103.56 96.0276 103.658 95.9274C103.757 95.8374 103.841 95.7493 103.909 95.6629L103.936 95.6284C104.213 95.2773 104.471 95.0277 104.709 94.8796C104.943 94.7373 105.171 94.674 105.392 94.6897C105.613 94.7055 105.839 94.7808 106.069 94.9157C106.3 95.0608 106.553 95.2424 106.83 95.4606C107.342 95.865 107.616 96.2636 107.652 96.6562C107.693 97.0533 107.493 97.531 107.053 98.0893C106.607 98.6533 106.183 98.9538 105.78 98.9907C105.378 99.038 104.919 98.8571 104.401 98.448L105.164 97.4811C105.348 97.6266 105.485 97.7202 105.573 97.762C105.667 97.8084 105.752 97.7958 105.827 97.7243C105.903 97.6631 106.01 97.5462 106.146 97.3735C106.282 97.2009 106.374 97.0674 106.42 96.9732C106.462 96.8848 106.455 96.7995 106.398 96.7174C106.342 96.6456 106.234 96.5461 106.073 96.4188L105.935 96.3098L105.743 96.1443C105.714 96.1216 105.665 96.083 105.596 96.0284C105.528 95.9842 105.443 95.9447 105.34 95.9098C105.318 95.9019 105.261 95.9321 105.17 96.0002C105.08 96.0787 104.974 96.1956 104.851 96.351C104.551 96.7309 104.273 96.988 104.018 97.1225C103.768 97.2615 103.528 97.3106 103.299 97.2697C103.071 97.239 102.84 97.146 102.608 96.9906C102.382 96.8397 102.139 96.662 101.88 96.4575L101.69 96.3075C101.172 95.8985 100.892 95.4954 100.851 95.0983C100.81 94.7114 101.013 94.236 101.458 93.672ZM99.2642 96.2652L101.411 98.2851C101.939 98.2275 102.391 98.25 102.768 98.3526C103.144 98.4552 103.486 98.616 103.794 98.8348C104.102 99.0641 104.419 99.3319 104.745 99.6384L105.353 100.211L104.517 101.101L104.301 100.897L104.092 100.686L103.923 100.527L103.763 100.361C103.501 100.115 103.212 99.9032 102.895 99.7261C102.578 99.549 102.202 99.4567 101.766 99.4493C101.79 99.9051 101.901 100.286 102.097 100.591C102.298 100.901 102.543 101.192 102.832 101.463L102.992 101.614L103.16 101.757L103.36 101.945L103.56 102.118L102.716 103.015L102.107 102.443C101.781 102.136 101.499 101.831 101.262 101.527C101.024 101.233 100.845 100.899 100.725 100.524C100.605 100.159 100.552 99.7121 100.567 99.1824L98.4201 97.1625L99.2642 96.2652ZM94.6765 100.636L94.9941 100.399L95.3136 100.147L99.7371 105.75L99.4849 105.963L98.8201 106.488C98.469 106.765 98.1114 106.987 97.7472 107.153C97.3819 107.329 97.0167 107.393 96.6516 107.345C96.2911 107.303 95.9375 107.091 95.5906 106.711C95.4952 106.59 95.3948 106.445 95.2894 106.276C95.1885 106.113 95.1049 105.936 95.0385 105.745C94.9767 105.561 94.9567 105.376 94.9786 105.19C94.6684 105.164 94.4051 105.05 94.1888 104.847C93.9771 104.649 93.7894 104.447 93.6258 104.24C93.3214 103.854 93.1186 103.515 93.0174 103.221C92.9162 102.927 92.9036 102.657 92.9797 102.41C93.0545 102.173 93.202 101.94 93.4223 101.71C93.6425 101.48 93.9196 101.233 94.2534 100.97L94.6765 100.636ZM96.8371 104.438L96.6903 104.554C96.6385 104.594 96.5752 104.644 96.5004 104.704C96.4301 104.768 96.351 104.863 96.2632 104.989C96.1765 105.104 96.1579 105.24 96.2073 105.397C96.2509 105.559 96.3272 105.709 96.4363 105.847C96.5317 105.968 96.6353 106.064 96.7471 106.134C96.8589 106.205 96.9555 106.227 97.037 106.2L97.0525 106.202C97.1945 106.192 97.3484 106.127 97.5141 106.005C97.6798 105.884 97.8318 105.769 97.9699 105.66L98.0476 105.598L97.0252 104.303L96.9302 104.378L96.8371 104.438ZM94.8378 101.994C94.6881 102.112 94.559 102.233 94.4506 102.356C94.3364 102.483 94.272 102.609 94.2575 102.732C94.2499 102.841 94.2829 102.96 94.3565 103.089C94.4244 103.222 94.5106 103.355 94.6151 103.487C94.6878 103.579 94.7662 103.667 94.8504 103.75C94.9289 103.837 95.0057 103.917 95.0808 103.988C95.1696 104.077 95.3002 104.077 95.4725 103.987C95.6449 103.898 95.8059 103.794 95.9556 103.676L96.0851 103.574L96.1991 103.47L96.3027 103.388L95.0518 101.839L94.9654 101.907L94.8378 101.994ZM91.9514 102.785L96.0023 108.637L94.9803 109.344L90.9294 103.493L91.9514 102.785ZM88.9896 104.679C89.5985 104.311 90.0973 104.172 90.4862 104.263C90.8726 104.364 91.2327 104.69 91.5664 105.243L93.381 108.246C93.7185 108.805 93.84 109.275 93.7456 109.658C93.6449 110.044 93.2902 110.421 92.6813 110.789C92.0787 111.153 91.583 111.29 91.1941 111.199C90.8027 111.119 90.4364 110.796 90.0951 110.231L88.4626 107.529C88.2805 107.228 88.1351 106.952 88.0261 106.7C87.9172 106.449 87.8718 106.211 87.89 105.986C87.9019 105.764 87.9931 105.547 88.1634 105.332C88.3376 105.124 88.613 104.906 88.9896 104.679ZM89.5851 105.707C89.3089 105.874 89.1856 106.039 89.215 106.201C89.2419 106.373 89.3426 106.603 89.5171 106.892L91.1496 109.594C91.2596 109.776 91.3499 109.897 91.4205 109.957C91.4886 110.028 91.5673 110.044 91.6564 110.008C91.7494 109.977 91.8901 109.905 92.0784 109.791C92.2667 109.678 92.3953 109.578 92.4642 109.494C92.5306 109.42 92.5517 109.334 92.5275 109.237C92.5009 109.151 92.4401 109.029 92.3453 108.872L90.6655 106.134C90.5366 105.921 90.4254 105.765 90.332 105.667C90.2387 105.569 90.1348 105.525 90.0204 105.534C89.906 105.543 89.7609 105.601 89.5851 105.707ZM87.1837 105.769L88.4801 113.032L87.7477 113.388L86.4169 106.154L87.1837 105.769ZM81.9218 108.212L82.19 108.993C82.3044 109.325 82.3931 109.64 82.4562 109.936C82.5216 110.24 82.5314 110.55 82.4857 110.868C82.4423 111.193 82.3192 111.546 82.1164 111.926C82.5075 112.094 82.8189 112.289 83.0506 112.512C83.2777 112.744 83.4621 112.999 83.6039 113.276C83.741 113.562 83.8656 113.868 83.9777 114.194L84.2422 114.964L83.0875 115.361L83.0017 115.111L82.9227 114.847L82.8548 114.65L82.7973 114.448C82.6876 114.129 82.5458 113.841 82.3718 113.583C82.2002 113.332 81.9211 113.129 81.5347 112.975C81.3156 113.353 81.2202 113.695 81.2486 114.004C81.2724 114.321 81.3392 114.639 81.4488 114.958L81.5096 115.135L81.5879 115.329L81.6738 115.579L81.7664 115.815L80.6013 116.215L80.3367 115.445C80.2271 115.126 80.1418 114.811 80.0809 114.498C80.0155 114.195 80.0044 113.881 80.0478 113.556C80.0935 113.237 80.2178 112.888 80.4207 112.509C80.0202 112.336 79.7064 112.134 79.4793 111.902C79.2477 111.679 79.0644 111.428 78.9296 111.148C78.7903 110.878 78.6634 110.577 78.549 110.244L78.2809 109.464L79.446 109.063L79.5249 109.327L79.6108 109.577L79.6683 109.778L79.7291 109.955C79.8411 110.281 79.9817 110.566 80.151 110.81C80.3226 111.061 80.6087 111.273 81.0092 111.446C81.2168 111.08 81.3123 110.748 81.2956 110.452C81.2813 110.162 81.217 109.85 81.1026 109.518L81.0242 109.323L80.9563 109.126L80.8601 108.88L80.7671 108.609L81.9218 108.212ZM77.9216 109.574L79.8163 116.435L78.6182 116.765L76.7235 109.905L77.9216 109.574ZM75.5561 110.151L75.9459 110.081L76.3443 109.997L77.8094 116.984L77.4887 117.063L76.6597 117.237C76.2219 117.328 75.8031 117.368 75.4031 117.354C74.9975 117.349 74.642 117.244 74.3366 117.038C74.0327 116.84 73.8101 116.493 73.6689 115.998C73.6373 115.847 73.6119 115.673 73.5928 115.475C73.5752 115.283 73.5792 115.088 73.6046 114.888C73.6316 114.695 73.6961 114.52 73.7982 114.364C73.5321 114.202 73.3474 113.983 73.2441 113.704C73.1424 113.434 73.0644 113.169 73.0102 112.911C72.9094 112.43 72.8791 112.035 72.9194 111.727C72.9596 111.419 73.0688 111.171 73.2468 110.984C73.4192 110.805 73.6552 110.662 73.9548 110.555C74.2544 110.447 74.6123 110.349 75.0286 110.262L75.5561 110.151ZM75.7974 114.518L75.6144 114.556C75.5498 114.57 75.4708 114.586 75.3775 114.606C75.2857 114.633 75.1726 114.682 75.038 114.756C74.9092 114.82 74.8319 114.934 74.8061 115.097C74.7731 115.261 74.7746 115.429 74.8108 115.601C74.8424 115.752 74.8925 115.884 74.9611 115.997C75.0298 116.11 75.1066 116.172 75.1916 116.185L75.2046 116.193C75.336 116.248 75.5029 116.258 75.7054 116.223C75.9078 116.188 76.0952 116.152 76.2675 116.116L76.3644 116.096L76.0257 114.481L75.9073 114.506L75.7974 114.518ZM75.0956 111.439C74.909 111.478 74.7398 111.529 74.5879 111.591C74.4288 111.654 74.3153 111.738 74.2472 111.842C74.192 111.936 74.1687 112.057 74.1772 112.205C74.1786 112.355 74.1966 112.512 74.2313 112.677C74.2553 112.792 74.2866 112.905 74.325 113.017C74.3563 113.13 74.3896 113.236 74.4251 113.333C74.465 113.452 74.582 113.51 74.7762 113.507C74.9703 113.504 75.1607 113.482 75.3473 113.443L75.5088 113.409L75.6572 113.367L75.7864 113.34L75.3563 111.396L75.2486 111.418L75.0956 111.439ZM70.37 111.066C70.8142 111.013 71.1731 111.018 71.4465 111.082C71.7134 111.154 71.9196 111.273 72.0651 111.44C72.2114 111.615 72.3192 111.839 72.3884 112.111C72.4505 112.384 72.5022 112.696 72.5438 113.045L71.3313 113.189L71.3066 112.982L71.2942 112.784L71.2734 112.609C71.2518 112.427 71.2043 112.307 71.131 112.249C71.0577 112.192 70.879 112.18 70.595 112.213L70.4093 112.235C70.229 112.272 70.0996 112.302 70.0213 112.326C69.9365 112.358 69.887 112.408 69.873 112.476C69.8598 112.552 69.8627 112.67 69.8817 112.83L69.896 112.95L69.902 113.093L69.9201 113.246L69.943 113.531C69.949 113.582 69.9617 113.658 69.9811 113.759C69.9932 113.861 70.0225 113.983 70.069 114.126C70.1059 114.188 70.1944 114.218 70.3345 114.216C70.4681 114.222 70.5896 114.219 70.6988 114.206L70.7425 114.201C71.1867 114.148 71.5455 114.153 71.8189 114.217C72.0851 114.281 72.2908 114.397 72.4363 114.564C72.5817 114.732 72.6882 114.944 72.7557 115.202C72.8169 115.468 72.8682 115.776 72.9097 116.125C72.9867 116.774 72.8993 117.249 72.6473 117.552C72.3961 117.863 71.9174 118.06 71.211 118.144C70.4974 118.229 69.9849 118.142 69.6736 117.884C69.3558 117.633 69.158 117.18 69.0801 116.525L70.3035 116.38C70.3312 116.613 70.3616 116.775 70.3947 116.867C70.4287 116.967 70.4975 117.018 70.6012 117.02C70.6984 117.031 70.8563 117.023 71.0748 116.997C71.2932 116.971 71.4521 116.941 71.5515 116.907C71.6436 116.874 71.6985 116.808 71.7164 116.71C71.7279 116.62 71.7215 116.473 71.6973 116.27L71.6765 116.095L71.6576 115.842C71.6532 115.806 71.6459 115.744 71.6355 115.657C71.6187 115.577 71.5861 115.489 71.5375 115.391C71.5276 115.37 71.4664 115.352 71.3537 115.336C71.2346 115.328 71.0767 115.335 70.8801 115.359C70.3995 115.416 70.0212 115.402 69.7452 115.316C69.47 115.238 69.2657 115.104 69.1323 114.913C68.9924 114.73 68.8951 114.501 68.8404 114.227C68.7865 113.96 68.7401 113.663 68.7012 113.336L68.6726 113.095C68.5948 112.44 68.6814 111.957 68.9325 111.646C69.1772 111.344 69.6564 111.151 70.37 111.066ZM66.996 111.347L67.0809 114.294C67.494 114.627 67.7971 114.963 67.9903 115.302C68.1835 115.642 68.3111 115.998 68.3732 116.37C68.4281 116.75 68.462 117.163 68.4749 117.61L68.499 118.446L67.2785 118.481L67.27 118.184L67.2724 117.887L67.2657 117.656L67.2701 117.425C67.2597 117.066 67.2055 116.712 67.1074 116.362C67.0093 116.013 66.809 115.681 66.5065 115.367C66.2008 115.706 66.0091 116.053 65.9312 116.407C65.8536 116.769 65.8205 117.148 65.8319 117.544L65.8382 117.763L65.8556 117.983L65.8635 118.258L65.8821 118.522L64.6506 118.557L64.6265 117.721C64.6136 117.274 64.631 116.859 64.6787 116.476C64.7192 116.101 64.8298 115.738 65.0105 115.388C65.1841 115.046 65.4637 114.693 65.8494 114.33L65.7645 111.383L66.996 111.347ZM60.6637 111.183L61.0555 111.241L61.4596 111.289L60.6074 118.377L60.2784 118.349L59.4375 118.248C58.9933 118.194 58.584 118.097 58.2095 117.956C57.8269 117.821 57.5239 117.608 57.3005 117.315C57.0764 117.03 56.9767 116.63 57.0016 116.116C57.02 115.963 57.0519 115.789 57.0974 115.595C57.142 115.409 57.2084 115.225 57.2967 115.043C57.3841 114.869 57.5012 114.724 57.6481 114.609C57.4477 114.371 57.3432 114.103 57.3346 113.807C57.325 113.518 57.336 113.242 57.3675 112.98C57.4262 112.492 57.524 112.109 57.661 111.83C57.7979 111.551 57.9807 111.351 58.2094 111.231C58.4299 111.117 58.6993 111.057 59.0176 111.051C59.3359 111.045 59.7062 111.068 60.1285 111.118L60.6637 111.183ZM59.4923 115.396L59.3067 115.374C59.2411 115.366 59.161 115.356 59.0664 115.345C58.9709 115.341 58.8477 115.352 58.6968 115.378C58.5541 115.398 58.4444 115.48 58.3678 115.626C58.2839 115.771 58.2314 115.931 58.2104 116.106C58.192 116.259 58.1972 116.4 58.226 116.529C58.2548 116.658 58.3075 116.742 58.3841 116.781L58.3937 116.793C58.5006 116.887 58.6555 116.95 58.8585 116.982C59.0615 117.013 59.2503 117.04 59.4251 117.061L59.5234 117.073L59.7204 115.434L59.6002 115.42L59.4923 115.396ZM59.8146 112.255C59.6253 112.232 59.4488 112.226 59.2851 112.236C59.1142 112.245 58.9797 112.288 58.8819 112.364C58.7994 112.436 58.7385 112.543 58.6992 112.686C58.6525 112.828 58.6192 112.983 58.599 113.15C58.585 113.267 58.5783 113.384 58.5788 113.502C58.5721 113.62 58.5699 113.73 58.5722 113.834C58.5719 113.959 58.6642 114.052 58.8491 114.111C59.034 114.17 59.2212 114.211 59.4105 114.234L59.5743 114.254L59.7285 114.261L59.8596 114.277L60.0754 112.297L59.9662 112.284L59.8146 112.255ZM57.2345 110.769L55.9089 117.761L54.6876 117.53L56.0133 110.537L57.2345 110.769ZM53.7932 109.992C54.4832 110.165 54.9329 110.422 55.1424 110.762C55.343 111.107 55.3648 111.592 55.2076 112.218L54.353 115.622C54.194 116.255 53.9455 116.672 53.6074 116.875C53.2621 117.076 52.7445 117.089 52.0546 116.916C51.3718 116.744 50.9256 116.489 50.7161 116.149C50.4977 115.814 50.4688 115.327 50.6296 114.687L51.3984 111.625C51.4842 111.283 51.5779 110.986 51.6795 110.731C51.7811 110.477 51.9183 110.277 52.091 110.132C52.2565 109.984 52.4754 109.895 52.7476 109.865C53.0179 109.843 53.3665 109.885 53.7932 109.992ZM53.4826 111.139C53.1696 111.06 52.9659 111.088 52.8715 111.224C52.7682 111.364 52.6755 111.598 52.5934 111.925L51.8245 114.987C51.7727 115.193 51.7503 115.342 51.7573 115.435C51.7554 115.533 51.799 115.6 51.8878 115.638C51.975 115.682 52.1252 115.731 52.3386 115.785C52.5519 115.839 52.7129 115.86 52.8214 115.85C52.921 115.844 52.9966 115.799 53.0483 115.714C53.0911 115.634 53.1348 115.505 53.1794 115.327L53.9403 112.206C54.0011 111.965 54.0333 111.776 54.037 111.641C54.0407 111.506 53.999 111.401 53.9119 111.326C53.8248 111.251 53.6817 111.189 53.4826 111.139ZM51.7398 109.475L47.5101 115.521L46.7413 115.253L50.9259 109.204L51.7398 109.475Z" fill="white"/>
</g>
<defs>
<linearGradient id="paint0_linear_1_2" x1="31.8337" y1="116.579" x2="113.166" y2="30.9211" gradientUnits="userSpaceOnUse">
<stop offset="0.0913462" stop-color="#295B4B"/>
<stop offset="0.379808" stop-color="#278F6E"/>
<stop offset="0.697115" stop-color="#11654A"/>
<stop offset="1" stop-color="#07291F"/>
</linearGradient>
<clipPath id="clip0_1_2">
<rect width="128" height="128" fill="white"/>
</clipPath>
</defs>
</svg>
